# xmcd CD database file generated by Grip 2.96
# 
# Track frame offsets:
#       150
#       16400
#       25345
#       48020
#       59487
#       91000
#       103565
#       118637
#       139390
#       156950
#       179337
#       194240
#       210450
#       227110
#       239935
# 
# Disc length: 3439 seconds
# 
# Revision: 0
# Processed by: cddbd v1.4PL0 Copyright (c) Steve Scherf et al.
# Submitted via: Grip 2.96
# 
DISCID=d60d6d0f
DTITLE=Rainer Baumann - The Blue(s) Mood
DYEAR=1900
DGENRE=
TTITLE0=Meet me in the bottom
TTITLE1=A man of many words
TTITLE2=Five long years
TTITLE3=Messin' with the kid
TTITLE4=Personal manager
TTITLE5=Down the road apiece
TTITLE6=Hang on loose
TTITLE7=Walkin' blues
TTITLE8=if you life
TTITLE9='round midnight
TTITLE10=I'm going upside your head
TTITLE11=Cold and lonesome
TTITLE12=Meet me
TTITLE13=You got me dizzy
TTITLE14=Fifteen years
EXTD=
EXTT0=
EXTT1=
EXTT2=
EXTT3=
EXTT4=
EXTT5=
EXTT6=
EXTT7=
EXTT8=
EXTT9=
EXTT10=
EXTT11=
EXTT12=
EXTT13=
EXTT14=
PLAYORDER=
